<svg preserveAspectRatio="xMidYMid meet" data-bbox="20 16 160 168" viewBox="20 16 160 168" height="200" width="200" xmlns="http://www.w3.org/2000/svg" data-type="color" role="presentation" aria-hidden="true"><defs><style>#comp-ksiskmin svg [data-color="1"] {fill: #FFFFFF;}
#comp-ksiskmin svg [data-color="2"] {fill: #B4B4B4;}</style></defs>
    <g>
        <path d="M117.3 184c-27.8 0-50.5-22.4-50.5-50v-9.7c0-2.3 1.9-4.1 4.2-4.1 2.3 0 4.2 1.9 4.2 4.1v9.7c0 23 18.9 41.8 42.1 41.8 23.2 0 42.1-18.7 42.1-41.8v-31.1c0-2.3 1.9-4.1 4.2-4.1s4.2 1.9 4.2 4.1V134c0 27.6-22.6 50-50.5 50z" fill="#fff"></path>
        <path d="M71 125.9c-28.1 0-51-22.7-51-50.6V31.7c0-2.3 1.9-4.1 4.2-4.1h20.5c2.3 0 4.2 1.9 4.2 4.1s-1.9 4.1-4.2 4.1H28.3v39.4c0 23.3 19.2 42.3 42.7 42.3 2.3 0 4.2 1.9 4.2 4.1 0 2.5-1.9 4.3-4.2 4.3z" fill="#fff" ></path>
        <path d="M47.6 47.5c-2.3 0-4.2-1.9-4.2-4.1V20.1c0-2.3 1.9-4.1 4.2-4.1s4.2 1.9 4.2 4.1v23.2c0 2.3-1.9 4.2-4.2 4.2z" fill="#e1e1e1"></path>
        <path d="M71 125.9c-2.3 0-4.2-1.9-4.2-4.1s1.9-4.1 4.2-4.1c23.5 0 42.7-19 42.7-42.3V35.9H97.4c-2.3 0-4.2-1.9-4.2-4.1s1.9-4.1 4.2-4.1h20.5c2.3 0 4.2 1.9 4.2 4.1v43.6c0 27.8-22.9 50.5-51.1 50.5z" fill="#fff"></path>
        <path d="M94.5 47.5c-2.3 0-4.2-1.9-4.2-4.1V20.1c0-2.3 1.9-4.1 4.2-4.1 2.3 0 4.2 1.9 4.2 4.1v23.2c-.1 2.3-1.9 4.2-4.2 4.2z" fill="#e1e1e1"></path>
        <path d="M70.1 103.8c-17.2 0-34.5-6.5-47.6-19.5-1.4-1.3-1.4-3.5 0-4.9 1.4-1.3 3.6-1.3 4.9 0 23.5 23.3 61.8 23.3 85.3 0 1.4-1.3 3.6-1.3 4.9 0 1.4 1.3 1.4 3.5 0 4.9-13.1 13-30.3 19.5-47.5 19.5z" fill="#fff"></path>
        <path d="M163.6 106.2c-9 0-16.4-7.3-16.4-16.2 0-8.9 7.3-16.2 16.4-16.2 9 0 16.4 7.3 16.4 16.2 0 8.9-7.3 16.2-16.4 16.2zm0-24.2c-4.4 0-8 3.6-8 7.9 0 4.4 3.6 7.9 8 7.9s8-3.6 8-7.9c.1-4.3-3.5-7.9-8-7.9z" fill="#e1e1e1"></path>
    </g>
</svg>
