<svg preserveAspectRatio="xMidYMid meet" data-bbox="17.581 58.791 164.838 82.418" viewBox="17.581 58.791 164.838 82.418" height="200" width="200" xmlns="http://www.w3.org/2000/svg" data-type="color" role="presentation" aria-hidden="true" aria-label="">
    <g>
        <path fill="#006506" d="M182.419 116.485v24.724H17.581v-24.724h164.838z" data-color="1"></path>
        <path fill="#FFFFFF" d="M17.581 112.364v4.121h164.838v-4.121H17.581z" data-color="2"></path>
        <path fill="#BA0201" d="M182.419 87.636v24.728H17.581V87.636h164.838z" data-color="3"></path>
        <path fill="#FFFFFF" d="M17.581 83.515v4.121h164.838v-4.121H17.581z" data-color="2"></path>
        <path fill="#141211" d="M182.419 58.791v24.724H17.581V58.791h164.838z" data-color="4"></path>
        <path d="M114.831 124.507L90.713 82.615c.449-.533.543-1.31.175-1.948-.47-.815-6.876-10.414-7.691-9.944-.815.47 4.269 10.829 4.738 11.644.369.64 1.087.948 1.773.828l24.117 41.89 1.006-.578z" fill="#FFFFFF" data-color="2"></path>
        <path d="M113.818 125.118l-.013-.021L89.696 83.22a1.728 1.728 0 0 1-1.782-.84c-.249-.434-1.657-3.275-2.851-5.954-1.605-3.593-2.237-5.518-1.879-5.724.358-.206 1.706 1.308 4.008 4.498 1.716 2.378 3.469 5.023 3.717 5.454a1.735 1.735 0 0 1-.166 1.963l24.122 41.898-1.047.603zM89.721 83.167l.008.015 24.107 41.869.963-.554-24.115-41.884.011-.013a1.684 1.684 0 0 0 .173-1.921c-.249-.434-1.999-3.075-3.715-5.452-2.994-4.153-3.755-4.593-3.942-4.484-.188.107-.19.988 1.897 5.661 1.194 2.679 2.601 5.518 2.849 5.951a1.683 1.683 0 0 0 1.748.813l.016-.001z" fill="#141211" data-color="4"></path>
        <path d="M116.804 70.723c-.815-.47-7.221 9.129-7.691 9.944a1.702 1.702 0 0 0 .175 1.948l-24.119 41.892 1.004.577 24.12-41.89a1.704 1.704 0 0 0 1.773-.828c.469-.814 5.553-11.173 4.738-11.643z" fill="#FFFFFF" data-color="2"></path>
        <path d="M86.183 125.118l-1.047-.602.011-.021 24.111-41.877a1.735 1.735 0 0 1-.166-1.963c.248-.432 2.001-3.077 3.717-5.454 2.302-3.191 3.65-4.701 4.008-4.498.356.206-.276 2.131-1.879 5.724-1.196 2.679-2.603 5.52-2.851 5.954a1.73 1.73 0 0 1-1.782.84l-24.122 41.897zm-.981-.621l.962.554 24.115-41.883.017.002a1.686 1.686 0 0 0 1.748-.813c.249-.434 1.655-3.273 2.849-5.951 2.087-4.673 2.085-5.553 1.897-5.661-.187-.11-.948.331-3.944 4.484-1.714 2.378-3.464 5.019-3.713 5.452a1.684 1.684 0 0 0 .172 1.921l.011.013-.008.015-24.106 41.867z" fill="#141211" data-color="4"></path>
        <path d="M109.804 86.299c-2.27-6.175-5.823-11.151-9.803-11.151s-7.535 4.976-9.803 11.151c1.617 4.404 2.584 9.416 2.584 13.67s-.967 9.266-2.584 13.668c2.268 6.177 5.823 11.153 9.803 11.153s7.533-4.976 9.803-11.153c-1.617-4.401-2.584-9.414-2.584-13.668 0-4.255.967-9.267 2.584-13.67z" fill="#BA0201" data-color="3"></path>
        <path d="M109.804 86.299c-1.617 4.404-2.584 9.416-2.584 13.67s.967 9.266 2.584 13.668c1.617-4.401 2.584-9.414 2.584-13.668 0-4.255-.967-9.267-2.584-13.67z" fill="#141211" data-color="4"></path>
        <path d="M90.197 86.299c-1.619 4.404-2.584 9.416-2.584 13.67s.965 9.266 2.584 13.668c1.617-4.401 2.584-9.414 2.584-13.668 0-4.255-.966-9.267-2.584-13.67z" fill="#141211" data-color="4"></path>
        <path fill="#FFFFFF" d="M102.167 99.968c0 1.734-.97 3.14-2.167 3.14-1.197 0-2.167-1.406-2.167-3.14 0-1.734.97-3.14 2.167-3.14 1.197 0 2.167 1.406 2.167 3.14z" data-color="2"></path>
        <path d="M97.322 85.901c0 4.477.844 8.411 2.121 10.679V75.223c-1.277 2.269-2.121 6.202-2.121 10.678z" fill="#FFFFFF" data-color="2"></path>
        <path d="M102.679 85.901c0 4.477-.847 8.411-2.121 10.679V75.223c1.275 2.269 2.121 6.202 2.121 10.678z" fill="#FFFFFF" data-color="2"></path>
        <path d="M102.679 114.034c0-4.475-.847-8.409-2.121-10.679v21.359c1.275-2.271 2.121-6.205 2.121-10.68z" fill="#FFFFFF" data-color="2"></path>
        <path d="M97.322 114.034c0-4.475.844-8.409 2.121-10.679v21.359c-1.277-2.271-2.121-6.205-2.121-10.68z" fill="#FFFFFF" data-color="2"></path>
    </g>
</svg>