<svg preserveAspectRatio="none" data-bbox="19.5 47.5 161 105.001" viewBox="19.5 47.5 161 105.001" height="200" width="200" xmlns="http://www.w3.org/2000/svg" data-type="shape" role="presentation" aria-hidden="true">
    <g>
        <path d="M100 52.558c5.054 0 10.111 1.912 13.944 5.735l55.772 55.611c7.668 7.646 7.668 20.158 0 27.804-3.833 3.823-8.887 5.735-13.944 5.735-5.054 0-10.108-1.912-13.941-5.735L100 100l-41.829 41.707c-3.835 3.823-8.889 5.735-13.944 5.735s-10.111-1.912-13.944-5.735c-7.668-7.646-7.668-20.158 0-27.804l55.772-55.61v-.001c3.834-3.823 8.891-5.734 13.945-5.734m0-5.058c-6.619 0-12.831 2.558-17.487 7.202l-55.772 55.611c-4.668 4.656-7.241 10.868-7.241 17.493 0 6.625 2.573 12.838 7.241 17.493 4.656 4.644 10.868 7.202 17.487 7.202s12.831-2.558 17.487-7.202L100 107.124l38.288 38.175c4.656 4.644 10.868 7.202 17.484 7.202 6.619 0 12.831-2.558 17.487-7.202 4.668-4.655 7.241-10.868 7.241-17.493s-2.573-12.838-7.241-17.493l-55.772-55.611C112.831 50.058 106.619 47.5 100 47.5z"></path>
    </g>
</svg>