<svg preserveAspectRatio="xMidYMid meet" data-bbox="31.233 29.197 137.602 141.604" viewBox="31.233 29.197 137.602 141.604" height="200" width="200" xmlns="http://www.w3.org/2000/svg" data-type="color" role="presentation" aria-hidden="true"><defs><style>#comp-ksisk9bn svg [] {fill: #FFFFFF;}</style></defs>
    <g>
        <path fill="#fff" d="M88.319 29.204v20.65h-5.883v-20.65h5.883z" ></path>
        <path fill="#fff" d="M111.85 29.197v20.65h-5.883v-20.65h5.883z" ></path>
        <path d="M100.1 94.1l-5.883.002c-9.732.003-17.651-7.934-17.654-17.695l-.003-10.334c-2.103-1.728-5.884-5.506-5.886-10.315l-.003-8.85 52.946-.016.003 8.85c.001 4.808-3.778 8.589-5.88 10.318l.003 10.334c.003 9.761-7.911 17.703-17.643 17.706zM76.557 52.807l.001 2.95c.001 2.754 3.615 5.749 4.584 6.4l1.301.875.004 13.373c.002 6.508 5.282 11.798 11.769 11.797l5.883-.002c6.489-.002 11.764-5.296 11.762-11.803l-.004-13.373 1.301-.876c1.183-.807 4.581-3.729 4.58-6.403l-.001-2.95-41.18.012z" fill="#fff" ></path>
        <path fill="#fff" d="M100.111 91.151v79.65h-5.883v-79.65h5.883z" ></path>
        <path d="M134.548 147.449c-7.063.005-13.056-3.194-16.585-5.621l3.325-4.864c4.054 2.785 12.11 6.879 20.623 2.93 12.525-5.809 20.95-17.925 21.047-29.699-5.65.682-11.019-.334-16.239-1.323-8.196-1.565-15.932-3.035-24.637 1.949-5.152 2.946-10.337 14.093-6.669 22.87l-5.428 2.277c-5.071-12.141 2.17-26.263 9.183-30.275 10.598-6.056 20.184-4.232 28.647-2.618 5.906 1.125 11.488 2.183 17.172.758l3.228-.813.403 3.316c1.857 15.173-8.338 31.542-24.241 38.916-3.403 1.576-6.72 2.196-9.829 2.197z" fill="#fff" ></path>
        <path d="M99.786 154.46l-5.22-2.718c11.844-22.86 33.316-29.873 48.993-34.994a299.301 299.301 0 0 0 5.518-1.84l1.932 5.571a311.078 311.078 0 0 1-5.627 1.877c-14.712 4.807-34.863 11.387-45.596 32.104z" fill="#fff" ></path>
        <path d="M62.525 131.415a20.568 20.568 0 0 1-6.749-1.15c-14.476-4.98-24.796-18.303-24.538-31.682l.065-3.339 3.295.474c4.919.71 9.584-.683 14.523-2.162 7.198-2.154 15.352-4.599 25.13-.272 7.408 3.282 13.869 15.475 10.782 25.694l-5.631-1.71c2.388-7.906-3.456-16.783-7.529-18.585-7.791-3.449-14.241-1.523-21.071.528-4.284 1.283-8.687 2.601-13.473 2.602h-.033c1.297 9.797 9.42 19.1 20.389 22.871 7.478 2.582 13.908-1.574 17.077-4.274l3.807 4.499c-3.174 2.702-8.909 6.504-16.044 6.506z" fill="#fff" ></path>
        <path d="M94.713 134.07c-10.965-16.72-28.773-20.57-41.776-23.38-1.758-.38-3.434-.742-5.004-1.113l1.351-5.745c1.535.365 3.174.719 4.894 1.09 13.996 3.027 33.162 7.169 45.449 25.909l-4.914 3.239z" fill="#fff" ></path>
        <path fill="#fff" d="M103.034 64.601v5.9H91.268v-5.9h11.766z" ></path>
        <path fill="#fff" d="M103.037 73.451v5.9H91.271v-5.9h11.766z" ></path>
    </g>
</svg>
